<!DOCTYPE svg PUBLIC "-//W3C//DTD SVG 1.1//EN" "http://www.w3.org/Graphics/SVG/1.1/DTD/svg11.dtd">

<!-- Uploaded to: SVG Repo, www.svgrepo.com, Transformed by: SVG Repo Mixer Tools -->
<svg fill="#35975f" height="48px" width="48px" version="1.1" id="Layer_1" xmlns="http://www.w3.org/2000/svg" xmlns:xlink="http://www.w3.org/1999/xlink" viewBox="-163.84 -163.84 839.68 839.68" xml:space="preserve" stroke="#35975f" transform="rotate(0)matrix(1, 0, 0, 1, 0, 0)" stroke-width="0.00512">

<g id="SVGRepo_bgCarrier" stroke-width="0">

<rect x="-163.84" y="-163.84" width="839.68" height="839.68" rx="419.84" fill="#7ed0ec" strokewidth="0"/>

</g>

<g id="SVGRepo_tracerCarrier" stroke-linecap="round" stroke-linejoin="round" stroke="#240a0a" stroke-width="1.024"/>

<g id="SVGRepo_iconCarrier"> <g> <g> <path d="M478.608,300.522v-33.39h-66.781V233.74h33.39v-0.001h0.001v-33.391h33.391V66.783h-33.392v-33.39h-33.39V0H0v100.174 h33.39v322.783H0V512h445.217v-33.39h33.39v-0.001h0.001v-33.391H512V300.522H478.608z M367.304,389.565h-33.391v33.391H144.696 V322.783h189.217v33.391h33.391V389.565z M367.304,155.826h-33.391v33.391H144.696V89.044h189.217v33.391h33.391V155.826z"/> </g> </g> </g>

</svg>